<svg width="173" height="223" viewBox="0 0 173 223" fill="none" xmlns="http://www.w3.org/2000/svg">
<path d="M108.714 222.369H11.1185C7.20641 222.369 4.32385 221.546 2.47077 219.898C0.82359 218.045 0 215.163 0 211.251V175.116C0 171.204 0.82359 168.424 2.47077 166.777C4.32385 164.924 7.20641 163.997 11.1185 163.997H94.1981C96.8747 163.997 98.8308 163.174 100.066 161.527C101.507 159.673 102.228 157.512 102.228 155.041C102.228 151.54 101.507 148.967 100.066 147.32C98.8308 145.672 96.8747 144.746 94.1981 144.54L47.8712 138.054C33.4583 135.995 21.8251 131.26 12.9715 123.847C4.32385 116.435 0 104.081 0 86.7858V54.3569C0 36.8556 5.66218 23.4723 16.9865 14.2069C28.3109 4.73564 43.9591 0 63.9312 0H150.408C154.32 0 157.1 0.926539 158.747 2.77962C160.6 4.4268 161.527 7.20641 161.527 11.1185V47.8712C161.527 51.7832 160.6 54.6658 158.747 56.5189C157.1 58.166 154.32 58.9896 150.408 58.9896H78.4469C75.7703 58.9896 73.7113 59.9161 72.27 61.7692C70.8287 63.4164 70.1081 65.5783 70.1081 68.255C70.1081 70.9317 70.8287 73.1965 72.27 75.0496C73.7113 76.9027 75.7703 77.9322 78.4469 78.1381L124.465 84.315C138.878 86.374 150.511 91.1096 159.365 98.5219C168.218 105.934 172.645 118.288 172.645 135.583V168.012C172.645 185.514 166.88 199 155.35 208.471C144.025 217.737 128.48 222.369 108.714 222.369ZM133.73 27.7961H65.1665C55.6953 27.7961 48.077 30.4728 42.3119 35.8261C36.5468 40.9736 33.6642 47.6652 33.6642 55.9011V81.2265C33.6642 89.6683 35.3114 95.5364 38.6058 98.8308C42.106 101.919 46.5328 103.978 51.8862 105.008L117.053 118.288C122.818 119.523 127.348 121.994 130.642 125.7C134.142 129.201 135.892 135.789 135.892 145.467V163.38C135.892 171.616 133.01 178.41 127.245 183.763C121.685 188.911 114.17 191.485 104.699 191.485H27.7962V194.573H104.699C115.2 194.573 123.538 191.69 129.715 185.925C135.892 179.954 138.981 172.439 138.981 163.38V145.467C138.981 134.76 136.922 127.348 132.804 123.23C128.892 119.112 123.847 116.435 117.67 115.2L52.5038 101.919C47.7682 101.096 43.9591 99.2426 41.0765 96.36C38.194 93.4774 36.7527 88.4329 36.7527 81.2265V55.9011C36.7527 48.6947 39.3264 42.7237 44.4738 37.9881C49.6213 33.2524 56.5188 30.8846 65.1665 30.8846H133.73V27.7961Z" fill="black"/>
</svg>
