<svg width="1065" height="223" viewBox="0 0 1065 223" fill="none" xmlns="http://www.w3.org/2000/svg">
<path d="M482.5 17.5H442.5V113.5L475.5 204.5H565L602.5 107V17.5H570.5L565 113.5L537.5 174.5H510L482.5 113.5V17.5Z" fill="black" stroke="black"/>
<path d="M711 20H671V116L704 207H793.5L831 109.5V20H799L793.5 116L766 177H738.5L711 116V20Z" fill="black" stroke="black"/>
<path d="M930.5 20.5H896V81L947.5 160V209.5H991V160L1048.5 86.5V14.5H1013.5V74L966.5 121.5L930.5 74V20.5Z" fill="black" stroke="black"/>
<path d="M223.5 202V95.5L256 16.5H345.5L382 127V206.5H340.5L334.5 151.5L262.5 150L267 124H331.5L322.5 41.5H281.5L251.5 206.5L223.5 202Z" fill="black"/>
<path d="M331.5 124L322.5 41.5H281.5L251.5 206.5L223.5 202V95.5L256 16.5H345.5L382 127V206.5H340.5L334.5 151.5M331.5 124L334.5 151.5M331.5 124H267L262.5 150L334.5 151.5" stroke="black"/>
<path d="M142.5 45V19L28 22L25.5 109.5L115.5 134L119 170.5L12.5 177.5L21 208.5L145.5 196.5V109.5L59 85.5V45H142.5Z" fill="black" stroke="black"/>
<path d="M108.714 222.369H11.1185C7.20641 222.369 4.32385 221.546 2.47077 219.898C0.82359 218.045 0 215.163 0 211.251V175.116C0 171.204 0.82359 168.424 2.47077 166.777C4.32385 164.924 7.20641 163.997 11.1185 163.997H94.1981C96.8747 163.997 98.8308 163.174 100.066 161.527C101.507 159.673 102.228 157.512 102.228 155.041C102.228 151.54 101.507 148.967 100.066 147.32C98.8308 145.672 96.8747 144.746 94.1981 144.54L47.8712 138.054C33.4583 135.995 21.8251 131.26 12.9715 123.847C4.32385 116.435 0 104.081 0 86.7858V54.3569C0 36.8556 5.66218 23.4723 16.9865 14.2069C28.3109 4.73564 43.9591 0 63.9312 0H150.408C154.32 0 157.1 0.926539 158.747 2.77962C160.6 4.4268 161.527 7.20641 161.527 11.1185V47.8712C161.527 51.7832 160.6 54.6658 158.747 56.5189C157.1 58.166 154.32 58.9896 150.408 58.9896H78.4469C75.7703 58.9896 73.7113 59.9161 72.27 61.7692C70.8287 63.4164 70.1081 65.5783 70.1081 68.255C70.1081 70.9317 70.8287 73.1965 72.27 75.0496C73.7113 76.9027 75.7703 77.9322 78.4469 78.1381L124.465 84.315C138.878 86.374 150.511 91.1096 159.365 98.5219C168.218 105.934 172.645 118.288 172.645 135.583V168.012C172.645 185.514 166.88 199 155.35 208.471C144.025 217.737 128.48 222.369 108.714 222.369ZM133.73 27.7961H65.1665C55.6953 27.7961 48.077 30.4728 42.3119 35.8261C36.5468 40.9736 33.6642 47.6652 33.6642 55.9011V81.2265C33.6642 89.6683 35.3114 95.5364 38.6058 98.8308C42.106 101.919 46.5328 103.978 51.8862 105.008L117.053 118.288C122.818 119.523 127.348 121.994 130.642 125.7C134.142 129.201 135.892 135.789 135.892 145.467V163.38C135.892 171.616 133.01 178.41 127.245 183.763C121.685 188.911 114.17 191.485 104.699 191.485H27.7962V194.573H104.699C115.2 194.573 123.538 191.69 129.715 185.925C135.892 179.954 138.981 172.439 138.981 163.38V145.467C138.981 134.76 136.922 127.348 132.804 123.23C128.892 119.112 123.847 116.435 117.67 115.2L52.5038 101.919C47.7682 101.096 43.9591 99.2426 41.0765 96.36C38.194 93.4774 36.7527 88.4329 36.7527 81.2265V55.9011C36.7527 48.6947 39.3264 42.7237 44.4738 37.9881C49.6213 33.2524 56.5188 30.8846 65.1665 30.8846H133.73V27.7961Z" fill="white"/>
<path d="M238.106 128.789C238.106 123.23 238.518 118.082 239.341 113.347C240.371 108.611 241.606 104.184 243.047 100.066L262.814 49.4154C264.873 44.2679 267.137 39.9441 269.608 36.4438C272.079 32.7377 276.403 30.8846 282.58 30.8846H312.847C318.612 30.8846 322.73 32.7377 325.201 36.4438C327.671 39.9441 330.039 44.3709 332.304 49.7242L353.614 100.066C355.056 104.184 356.188 108.611 357.012 113.347C358.041 118.082 358.556 123.23 358.556 128.789V138.363H238.106V128.789ZM287.521 64.8577L273.005 111.802H321.494L306.979 64.8577C306.155 63.0046 305.228 61.6663 304.199 60.8427C303.375 60.0191 302.346 59.6073 301.111 59.6073H293.389C292.154 59.6073 291.022 60.0191 289.992 60.8427C289.168 61.6663 288.345 63.0046 287.521 64.8577ZM358.556 194.573H361.644V128.789C361.644 123.024 361.13 117.773 360.1 113.038C359.277 108.096 358.041 103.361 356.394 98.8308L335.084 48.4888C332.613 42.5178 329.936 37.5763 327.054 33.6642C324.377 29.7522 319.641 27.7961 312.847 27.7961H282.58C275.579 27.7961 270.638 29.7522 267.755 33.6642C264.873 37.5763 262.299 42.4149 260.034 48.18L240.268 98.8308C238.621 103.361 237.282 108.096 236.253 113.038C235.429 117.773 235.017 123.024 235.017 128.789V194.573H238.106V141.452H358.556V194.573ZM269.917 211.251C269.917 215.163 268.99 218.045 267.137 219.898C265.49 221.546 262.711 222.369 258.799 222.369H213.398C209.486 222.369 206.604 221.546 204.751 219.898C203.103 218.045 202.28 215.163 202.28 211.251V129.715C202.28 123.538 203.206 116.435 205.059 108.405C207.118 100.375 210.207 91.0067 214.325 80.3L241.194 10.1919C242.43 6.69166 244.283 4.11794 246.754 2.47077C249.43 0.823591 252.828 0 256.945 0H340.025C343.937 0 347.129 0.823591 349.599 2.47077C352.276 4.11794 354.232 6.69166 355.467 10.1919L382.337 80.3C386.455 91.0067 389.441 100.375 391.294 108.405C393.353 116.435 394.382 123.538 394.382 129.715V211.251C394.382 215.163 393.455 218.045 391.602 219.898C389.955 221.546 387.176 222.369 383.264 222.369H336.628C332.51 222.369 329.421 221.546 327.362 219.898C325.509 218.045 324.583 215.163 324.583 211.251V168.012H269.917V211.251Z" fill="white"/>
<path d="M561.55 222.369H481.25C477.338 222.369 474.043 221.649 471.367 220.207C468.896 218.766 466.94 216.089 465.499 212.177L435.232 136.51C433.379 131.98 431.834 128.068 430.599 124.774C429.364 121.274 428.334 117.979 427.511 114.891C426.687 111.802 426.069 108.611 425.658 105.317C425.452 101.816 425.349 97.5954 425.349 92.6538V11.1185C425.349 7.20641 426.172 4.4268 427.819 2.77962C429.673 0.926539 432.555 0 436.467 0H485.574C489.486 0 492.471 0.926539 494.53 2.77962C496.589 4.4268 497.619 7.20641 497.619 11.1185V96.36C497.619 98.419 497.825 100.478 498.236 102.537C498.648 104.596 499.266 106.758 500.089 109.023L514.605 152.261C515.223 154.32 515.943 155.761 516.767 156.585C517.591 157.203 518.826 157.512 520.473 157.512H523.871C525.518 157.512 526.753 157.203 527.577 156.585C528.4 155.761 529.121 154.32 529.739 152.261L544.254 108.714C545.078 106.449 545.696 104.287 546.107 102.228C546.519 100.169 546.725 98.1101 546.725 96.0512V11.1185C546.725 7.20641 547.549 4.4268 549.196 2.77962C551.049 0.926539 553.932 0 557.844 0H606.333C610.245 0 613.024 0.926539 614.671 2.77962C616.524 4.4268 617.451 7.20641 617.451 11.1185V92.6538C617.451 97.5954 617.245 101.816 616.833 105.317C616.627 108.611 616.113 111.802 615.289 114.891C614.465 117.979 613.436 121.274 612.201 124.774C610.965 128.068 609.421 131.98 607.568 136.51L577.301 212.177C575.86 216.089 573.801 218.766 571.124 220.207C568.653 221.649 565.462 222.369 561.55 222.369ZM460.248 27.7961V94.5069C460.248 100.272 460.557 105.625 461.175 110.567C461.998 115.303 463.337 119.935 465.19 124.465L485.574 173.88C488.044 179.851 490.824 184.793 493.913 188.705C497.001 192.617 501.737 194.573 508.119 194.573H535.298C541.681 194.573 546.416 192.617 549.505 188.705C552.593 184.793 555.373 179.851 557.844 173.88L578.227 124.465C580.081 119.935 581.316 115.303 581.934 110.567C582.757 105.625 583.169 100.272 583.169 94.5069V27.7961H580.081V94.5069C580.081 99.8602 579.669 105.008 578.845 109.949C578.022 114.685 576.786 119.112 575.139 123.23L554.755 172.645C552.696 177.998 550.328 182.528 547.652 186.234C545.181 189.734 541.063 191.485 535.298 191.485H508.119C502.354 191.485 498.133 189.734 495.457 186.234C492.986 182.528 490.721 177.998 488.662 172.645L468.278 123.23C466.631 119.112 465.396 114.685 464.572 109.949C463.749 105.008 463.337 99.8602 463.337 94.5069V27.7961H460.248Z" fill="white"/>
<path d="M787.635 222.369H707.335C703.423 222.369 700.128 221.649 697.452 220.207C694.981 218.766 693.025 216.089 691.584 212.177L661.317 136.51C659.464 131.98 657.919 128.068 656.684 124.774C655.449 121.274 654.419 117.979 653.596 114.891C652.772 111.802 652.154 108.611 651.743 105.317C651.537 101.816 651.434 97.5954 651.434 92.6538V11.1185C651.434 7.20641 652.257 4.4268 653.904 2.77962C655.757 0.926539 658.64 0 662.552 0H711.659C715.571 0 718.556 0.926539 720.615 2.77962C722.674 4.4268 723.704 7.20641 723.704 11.1185V96.36C723.704 98.419 723.91 100.478 724.321 102.537C724.733 104.596 725.351 106.758 726.174 109.023L740.69 152.261C741.308 154.32 742.029 155.761 742.852 156.585C743.676 157.203 744.911 157.512 746.558 157.512H749.956C751.603 157.512 752.838 157.203 753.662 156.585C754.485 155.761 755.206 154.32 755.824 152.261L770.339 108.714C771.163 106.449 771.781 104.287 772.193 102.228C772.604 100.169 772.81 98.1101 772.81 96.0512V11.1185C772.81 7.20641 773.634 4.4268 775.281 2.77962C777.134 0.926539 780.017 0 783.929 0H832.418C836.33 0 839.109 0.926539 840.756 2.77962C842.609 4.4268 843.536 7.20641 843.536 11.1185V92.6538C843.536 97.5954 843.33 101.816 842.918 105.317C842.712 108.611 842.198 111.802 841.374 114.891C840.55 117.979 839.521 121.274 838.286 124.774C837.05 128.068 835.506 131.98 833.653 136.51L803.386 212.177C801.945 216.089 799.886 218.766 797.209 220.207C794.738 221.649 791.547 222.369 787.635 222.369ZM686.333 27.7961V94.5069C686.333 100.272 686.642 105.625 687.26 110.567C688.083 115.303 689.422 119.935 691.275 124.465L711.659 173.88C714.129 179.851 716.909 184.793 719.997 188.705C723.086 192.617 727.822 194.573 734.204 194.573H761.383C767.766 194.573 772.501 192.617 775.59 188.705C778.678 184.793 781.458 179.851 783.929 173.88L804.312 124.465C806.166 119.935 807.401 115.303 808.019 110.567C808.842 105.625 809.254 100.272 809.254 94.5069V27.7961H806.166V94.5069C806.166 99.8602 805.754 105.008 804.93 109.949C804.107 114.685 802.871 119.112 801.224 123.23L780.84 172.645C778.781 177.998 776.413 182.528 773.737 186.234C771.266 189.734 767.148 191.485 761.383 191.485H734.204C728.439 191.485 724.218 189.734 721.542 186.234C719.071 182.528 716.806 177.998 714.747 172.645L694.363 123.23C692.716 119.112 691.481 114.685 690.657 109.949C689.834 105.008 689.422 99.8602 689.422 94.5069V27.7961H686.333Z" fill="white"/>
<path d="M994.88 222.369H944.847C940.935 222.369 938.053 221.546 936.199 219.898C934.552 218.045 933.729 215.163 933.729 211.251V171.718L886.475 108.405C881.74 102.022 878.548 96.463 876.901 91.7273C875.46 86.9917 874.739 79.8882 874.739 70.4169V11.1185C874.739 7.20641 875.563 4.4268 877.21 2.77962C879.063 0.926539 881.945 0 885.858 0H933.42C937.332 0 940.112 0.926539 941.759 2.77962C943.612 4.4268 944.538 7.20641 944.538 11.1185V61.7692C944.538 63.8282 944.641 65.9901 944.847 68.255C945.053 70.5199 945.877 72.6818 947.318 74.7408L961.525 96.9777C962.554 98.8308 963.584 100.169 964.613 100.993C965.849 101.816 967.29 102.228 968.937 102.228H972.026C973.673 102.228 975.011 101.816 976.041 100.993C977.276 100.169 978.408 98.8308 979.438 96.9777L993.645 74.7408C995.086 72.6818 995.91 70.5199 996.116 68.255C996.321 65.9901 996.424 63.8282 996.424 61.7692V11.1185C996.424 7.20641 997.248 4.4268 998.895 2.77962C1000.75 0.926539 1003.63 0 1007.54 0H1053.56C1057.47 0 1060.25 0.926539 1061.9 2.77962C1063.75 4.4268 1064.68 7.20641 1064.68 11.1185V70.4169C1064.68 79.8882 1063.86 86.9917 1062.21 91.7273C1060.56 96.463 1057.47 102.022 1052.94 108.405L1006 172.027V211.251C1006 215.163 1005.07 218.045 1003.22 219.898C1001.57 221.546 998.792 222.369 994.88 222.369ZM973.57 141.76C978.305 141.76 982.423 140.731 985.924 138.672C989.63 136.613 993.13 133.319 996.424 128.789L1027.31 87.0946C1029.78 83.8003 1031.12 80.197 1031.32 76.285C1031.74 72.167 1031.94 67.8432 1031.94 63.3134V27.7961H1028.85V63.3134C1028.85 67.6373 1028.65 71.8582 1028.24 75.9761C1027.82 79.8882 1026.59 83.1826 1024.53 85.8592L993.645 127.553C990.556 131.466 987.365 134.348 984.071 136.201C980.982 137.848 977.482 138.672 973.57 138.672H965.231C961.731 138.672 958.23 137.848 954.73 136.201C951.23 134.554 948.142 131.671 945.465 127.553L915.507 85.8592C913.448 82.7708 912.212 79.3735 911.801 75.6673C911.389 71.7553 911.183 67.6373 911.183 63.3134V27.7961H908.094V63.3134C908.094 67.8432 908.3 72.167 908.712 76.285C909.124 80.4029 910.462 84.0062 912.727 87.0946L942.685 128.789C945.98 133.319 949.377 136.613 952.877 138.672C956.583 140.731 960.701 141.76 965.231 141.76H968.319V194.573H971.408V141.76H973.57Z" fill="white"/>
</svg>
